<?xml version="1.0" encoding="UTF-8" standalone="no"?> <svg viewBox="0 0 48 48" fill="none" xmlns="http://www.w3.org/2000/svg">
<path d="M40 10H8C5.23858 10 3 12.2386 3 15V37C3 39.7614 5.23858 42 8 42H40C42.7614 42 45 39.7614 45 37V15C45 12.2386 42.7614 10 40 10Z" fill="#EAEFF0"/>
<path d="M4.686 11.285C4.15808 11.7497 3.7348 12.3211 3.44416 12.9615C3.15351 13.6019 3.00213 14.2967 3 15V37C3.00159 38.3256 3.52888 39.5964 4.46622 40.5338C5.40356 41.4711 6.6744 41.9984 8 42H40C41.2255 41.996 42.4061 41.5382 43.314 40.715L4.686 11.285Z" fill="#CDD3D3"/>
<path d="M19.5 34.1C17.6869 34.1015 15.9111 33.5857 14.381 32.613L14.139 32.459C14.0266 32.3893 13.9291 32.2979 13.8522 32.1902C13.7753 32.0825 13.7206 31.9607 13.6911 31.8317C13.6617 31.7027 13.6581 31.5691 13.6807 31.4387C13.7032 31.3084 13.7514 31.1838 13.8225 31.0721C13.8936 30.9605 13.9861 30.8641 14.0946 30.7885C14.2032 30.7129 14.3257 30.6596 14.4551 30.6317C14.5844 30.6038 14.718 30.6018 14.8481 30.6259C14.9782 30.65 15.1022 30.6996 15.213 30.772L15.455 30.925C16.768 31.758 18.3059 32.1657 19.8592 32.0925C21.4124 32.0193 22.9052 31.4688 24.134 30.516C25.5576 29.4161 27.2621 28.739 29.0524 28.5622C30.8427 28.3854 32.6467 28.7159 34.258 29.516L37.443 31.108C37.6804 31.2266 37.8609 31.4346 37.9449 31.6862C38.029 31.9379 38.0095 32.2126 37.891 32.45C37.7724 32.6874 37.5645 32.8679 37.3128 32.952C37.0611 33.036 36.7864 33.0166 36.549 32.898L33.367 31.3C32.0935 30.6683 30.668 30.4075 29.2533 30.5476C27.8386 30.6876 26.4919 31.2228 25.367 32.092C23.6896 33.3961 21.6247 34.1028 19.5 34.1Z" fill="#8FA5A5"/>
<path d="M27.679 28.8C26.392 29.1169 25.1857 29.7001 24.138 30.512C22.9092 31.4648 21.4164 32.0153 19.8632 32.0885C18.3099 32.1617 16.772 31.754 15.459 30.921L15.217 30.768C15.1062 30.6956 14.9822 30.646 14.8521 30.6219C14.722 30.5978 14.5884 30.5998 14.4591 30.6277C14.3297 30.6556 14.2072 30.7089 14.0986 30.7845C13.9901 30.8601 13.8976 30.9565 13.8265 31.0681C13.7554 31.1797 13.7072 31.3043 13.6847 31.4347C13.6621 31.5651 13.6657 31.6987 13.6951 31.8277C13.7246 31.9566 13.7793 32.0785 13.8562 32.1862C13.9331 32.2939 14.0306 32.3853 14.143 32.455L14.385 32.609C16.0462 33.6626 17.9919 34.1781 19.9569 34.0854C21.9218 33.9927 23.8104 33.2963 25.365 32.091C26.6775 31.0802 28.2864 30.5298 29.943 30.525L27.679 28.8Z" fill="#7B8E8D"/>
<path d="M14.536 32.635C14.2618 32.634 13.9907 32.5772 13.7392 32.468C13.4877 32.3588 13.261 32.1996 13.073 32C12.8858 31.8024 12.7416 31.5682 12.6494 31.3121C12.5571 31.056 12.5189 30.7836 12.537 30.512L12.696 27.871C12.7435 27.0966 12.9694 26.3437 13.356 25.671L25 5.50002C25.1968 5.15842 25.459 4.85896 25.7717 4.61877C26.0843 4.37859 26.4412 4.20237 26.822 4.10021C27.2028 3.99805 27.6 3.97195 27.9908 4.02339C28.3817 4.07483 28.7586 4.20282 29.1 4.40002L29.965 4.90002C30.3066 5.09684 30.6061 5.35907 30.8462 5.6717C31.0864 5.98433 31.2626 6.34124 31.3648 6.72202C31.467 7.1028 31.4931 7.49998 31.4416 7.89086C31.3902 8.28173 31.2622 8.65864 31.065 9.00002L19.419 29.171C19.03 29.8427 18.491 30.4153 17.844 30.844L15.636 32.3C15.31 32.517 14.9276 32.6334 14.536 32.635V32.635Z" fill="#009AE0"/>
<path d="M14.536 32.635C14.9274 32.634 15.3098 32.5183 15.636 32.302L17.844 30.844C18.491 30.4153 19.0301 29.8427 19.419 29.171L31.064 9.00003C31.2612 8.65864 31.3892 8.28174 31.4406 7.89087C31.4921 7.49999 31.466 7.10281 31.3638 6.72203C31.2616 6.34125 31.0854 5.98434 30.8452 5.67171C30.6051 5.35907 30.3056 5.09685 29.964 4.90003L29.576 4.67603L13.581 32.376C13.8726 32.541 14.201 32.63 14.536 32.635Z" fill="#0081BD"/>
<path d="M29.966 4.90002L29.1 4.40002C28.7586 4.20282 28.3817 4.07483 27.9908 4.02339C27.6 3.97195 27.2028 3.99805 26.822 4.10021C26.4412 4.20237 26.0843 4.37859 25.7717 4.61877C25.4591 4.85896 25.1968 5.15842 25 5.50002L23.55 8.01202L29.612 11.512L31.064 9.00002C31.2612 8.65864 31.3892 8.28173 31.4406 7.89086C31.4921 7.49998 31.466 7.1028 31.3638 6.72202C31.2616 6.34124 31.0854 5.98433 30.8452 5.6717C30.6051 5.35907 30.3056 5.09684 29.964 4.90002H29.966Z" fill="#0081BD"/>
<path d="M29.614 11.512L31.064 9.00003C31.2612 8.65864 31.3892 8.28174 31.4406 7.89087C31.4921 7.49999 31.466 7.10281 31.3638 6.72203C31.2616 6.34125 31.0854 5.98434 30.8452 5.67171C30.6051 5.35907 30.3056 5.09685 29.964 4.90003L29.576 4.67603L26.625 9.78603L29.614 11.512Z" fill="#00739B"/>
<path d="M24.0013 7.23206L23.0014 8.96414L29.0637 12.4639L30.0636 10.7318L24.0013 7.23206Z" fill="#EAEFF0"/>
<path d="M27.0781 9.00779L26.0781 10.7398L29.065 12.4643L30.065 10.7323L27.0781 9.00779Z" fill="#CDD3D3"/>
</svg>
